<?xml version="1.0" encoding="utf-8"?>
<!-- Generator: Adobe Illustrator 19.0.0, SVG Export Plug-In . SVG Version: 6.00 Build 0)  -->
<svg version="1.0" id="Layer_1" xmlns="http://www.w3.org/2000/svg" xmlns:xlink="http://www.w3.org/1999/xlink" x="0px" y="0px"
	 viewBox="0 0 960 560" enable-background="new 0 0 960 560" xml:space="preserve">
<linearGradient id="XMLID_8_" gradientUnits="userSpaceOnUse" x1="58.3438" y1="281.7447" x2="578.9153" y2="281.7447">
	<stop  offset="0" style="stop-color:#FFBFF9"/>
	<stop  offset="0.3726" style="stop-color:#FDBEF7"/>
	<stop  offset="0.5069" style="stop-color:#F6B9F1"/>
	<stop  offset="0.6026" style="stop-color:#EBB0E5"/>
	<stop  offset="0.68" style="stop-color:#DAA3D4"/>
	<stop  offset="0.7463" style="stop-color:#C492BF"/>
	<stop  offset="0.805" style="stop-color:#A87EA4"/>
	<stop  offset="0.8581" style="stop-color:#886685"/>
	<stop  offset="0.9069" style="stop-color:#624A60"/>
	<stop  offset="0.9523" style="stop-color:#372936"/>
	<stop  offset="0.9926" style="stop-color:#090709"/>
	<stop  offset="1" style="stop-color:#000000"/>
</linearGradient>
<path id="XMLID_2_" fill="url(#XMLID_8_)" stroke="#000000" stroke-width="4" stroke-miterlimit="10" d="M109.5,516.2
	c0,0,114.8,52.4,203.4-0.3C401.4,463.2,431,123,512,254.6c0,13.2,0,287.4,0,287.4h49V223.9c0,0,39.9-116.3,0.6-188.6
	S434.1,204.1,407,123s-62.5-74.6-62.5-74.6s-42.9,0-17.2,50.5s71.4,109.7,71.4,109.7s-52.8,201.8-99.9,247.9s-145.7,43.9-197.1,17.5
	C50.2,447.6,35,469.8,109.5,516.2z"/>
<polygon id="XMLID_1_" fill="#FFFFFF" stroke="#000000" stroke-width="3" stroke-miterlimit="10" points="523.5,264.5 523.5,541.9 
	547.5,540.8 547.5,264.5 "/>
<line id="XMLID_3_" fill="#FFFFFF" stroke="#000000" stroke-miterlimit="10" x1="512.5" y1="542" x2="512.5" y2="254"/>
<line id="XMLID_5_" fill="#FFFFFF" stroke="#000000" stroke-miterlimit="10" x1="561.5" y1="226" x2="561.5" y2="542"/>
<text id="XMLID_4_" transform="matrix(0.6511 0 0 1 33.9868 398.249)" font-family="'Lato-Black'" font-size="131.6115px" letter-spacing="26.1">LADY</text>
<text id="XMLID_7_" transform="matrix(0.6511 0 0 1 601.5127 398)"><tspan x="0" y="0" font-family="'Lato-Black'" font-size="131.6115px" letter-spacing="26.1">HEELS</tspan><tspan x="519.5" y="0" font-family="'Lato-Black'" font-size="131.6115px" letter-spacing="33.8">	</tspan></text>
</svg>
